# xmcd CD database file
#
# Track frame offsets:
#	150
#	29715
#	84327
#	134695
#
# Disc length: 2168 seconds
#
# Revision: 0
# Processed by: cddbd v1.5.1PL2 Copyright (c) Steve Scherf et al.
# Submitted via: CDex 1.51
#
DISCID=32087604
DTITLE=Albert Ayler - Spirits
DYEAR=1964
DGENRE=Jazz
TTITLE0=Spirits
TTITLE1=Witches and Devils
TTITLE2=Holy, Holy
TTITLE3=Saints
EXTD=
EXTT0=
EXTT1=
EXTT2=
EXTT3=
PLAYORDER=
